
<svg width="26px" height="26px" viewBox="270 226 26 26" version="1.1" xmlns="http://www.w3.org/2000/svg" xmlns:xlink="http://www.w3.org/1999/xlink">
    <!-- Generator: Sketch 42 (36781) - http://www.bohemiancoding.com/sketch -->
    <desc>Created with Sketch.</desc>
    <defs></defs>
    <g id="ok2-copy" stroke="none" stroke-width="1" fill="none" fill-rule="evenodd" transform="translate(270.000000, 226.000000)">
        <path d="M24.1796149,6.51888133 C23.0251095,4.54084946 21.4589441,2.97468402 19.4809122,1.82017867 C17.5024676,0.665673313 15.342645,0.0885238095 12.9999999,0.0885238095 C10.6575612,0.0885238095 8.49711954,0.665673313 6.51908767,1.82017867 C4.54084945,2.97447767 2.97468401,4.54064311 1.82017866,6.51888133 C0.665466964,8.49711954 0.0883174603,10.6575612 0.0883174603,12.9997936 C0.0883174603,15.3422323 0.66567331,17.5022613 1.81997232,19.4807059 C2.97447767,21.4585314 4.54064311,23.0249032 6.51888132,24.1794085 C8.49711954,25.3339139 10.6573548,25.9110634 12.9997936,25.9110634 C15.3422323,25.9110634 17.502674,25.3339139 19.4807058,24.1794085 C21.4587377,23.0251095 23.0249032,21.4587377 24.1794085,19.4807059 C25.3337075,17.5024676 25.910857,15.342026 25.910857,12.9997936 C25.910857,10.6573548 25.3337075,8.49691319 24.1796149,6.51888133 L24.1796149,6.51888133 Z M21.3716597,11.0329044 L12.2431231,20.161441 C12.0301742,20.37439 11.7724481,20.4810708 11.4697387,20.4810708 C11.1783783,20.4810708 10.9262236,20.37439 10.7132746,20.161441 L4.62730839,14.0758875 C4.42570844,13.8738749 4.32480529,13.6221328 4.32480529,13.3194234 C4.32480529,13.0055713 4.42550209,12.7476389 4.62730839,12.5458326 L6.15715695,11.0329044 C6.37031227,10.8199554 6.62226062,10.7134809 6.91382739,10.7134809 C7.20539416,10.7134809 7.45754885,10.8199554 7.67049783,11.0329044 L11.469945,14.8323516 L18.3290893,7.9899213 C18.5420383,7.77697232 18.794193,7.67049783 19.0855534,7.67049783 C19.3767075,7.67049783 19.6292749,7.77697232 19.8420175,7.9899213 L21.3718661,9.50305584 C21.5738787,9.70465579 21.6745755,9.96238183 21.6745755,10.276234 C21.6745755,10.5789434 21.5738787,10.8310981 21.3716597,11.0329044 L21.3716597,11.0329044 Z" id="Shape" fill="#28DA8A"></path>
    </g>
</svg>
