
<svg width="26px" height="26px" viewBox="271 328 26 26" version="1.1" xmlns="http://www.w3.org/2000/svg" xmlns:xlink="http://www.w3.org/1999/xlink">
    <!-- Generator: Sketch 42 (36781) - http://www.bohemiancoding.com/sketch -->
    <desc>Created with Sketch.</desc>
    <defs></defs>
    <g id="circle33" stroke="none" stroke-width="1" fill="none" fill-rule="evenodd" transform="translate(271.000000, 328.000000)">
        <path d="M24.18,6.51898413 C23.0254762,4.54092063 21.4592857,2.97473016 19.4812222,1.82020635 C17.502746,0.66568254 15.3428889,0.0885238095 13.0002063,0.0885238095 C10.6577302,0.0885238095 8.49725397,0.66568254 6.51919048,1.82020635 C4.54092063,2.97452381 2.97473016,4.54071429 1.82020635,6.51898413 C0.66547619,8.49725397 0.0883174603,10.6577302 0.0883174603,13 C0.0883174603,15.3424762 0.66568254,17.5025397 1.82,19.4810159 C2.97452381,21.458873 4.54071429,23.0252698 6.51898413,24.1797937 C8.49725397,25.3343175 10.6575238,25.9114762 13,25.9114762 C15.3424762,25.9114762 17.5029524,25.3343175 19.4810159,24.1797937 C21.4590794,23.0254762 23.0252698,21.4590794 24.1797937,19.4810159 C25.3341111,17.502746 25.9112698,15.3422698 25.9112698,13 C25.9112698,10.6575238 25.3341111,8.49704762 24.18,6.51898413 L24.18,6.51898413 Z M20.9184444,17.589619 C20.1002698,18.9905238 18.9907302,20.1000635 17.589619,20.9184444 C16.1887143,21.736619 14.6588413,22.1453968 13,22.1453968 C11.3413651,22.1453968 9.81149206,21.736619 8.41038095,20.9184444 C7.00947619,20.1000635 5.89993651,18.9905238 5.0817619,17.589619 C4.26338095,16.1887143 3.85439683,14.6588413 3.85439683,13 C3.85439683,11.3411587 4.2635873,9.81128571 5.0817619,8.41038095 C5.89973016,7.00947619 7.00947619,5.89973016 8.41038095,5.08155556 C9.81128571,4.26338095 11.3411587,3.85439683 13,3.85439683 C14.6588413,3.85439683 16.1887143,4.26338095 17.589619,5.08155556 C18.9907302,5.89973016 20.1002698,7.00947619 20.9184444,8.41038095 C21.736619,9.81128571 22.1453968,11.3411587 22.1453968,13 C22.1453968,14.6588413 21.736619,16.1887143 20.9184444,17.589619 L20.9184444,17.589619 Z" id="Shape" fill="#AAAAAA"></path>
    </g>
</svg>
