
<svg width="26px" height="26px" viewBox="227 26 26 26" version="1.1" xmlns="http://www.w3.org/2000/svg" xmlns:xlink="http://www.w3.org/1999/xlink">
    <!-- Generator: Sketch 42 (36781) - http://www.bohemiancoding.com/sketch -->
    <desc>Created with Sketch.</desc>
    <defs></defs>
    <g id="earth17" stroke="none" stroke-width="1" fill="none" fill-rule="evenodd" transform="translate(227.000000, 26.000000)">
        <path d="M23.751904,6.6545278 C22.6341738,4.73950327 21.1178963,3.22322576 19.2028717,2.1054955 C17.2874477,0.987765243 15.1964231,0.429 12.9283995,0.429 C10.6605758,0.429 8.56915165,0.987765243 6.65392735,2.1054955 C4.73870304,3.22302599 3.22242553,4.7393035 2.10469527,6.6545278 C0.986765243,8.56975211 0.428,10.661376 0.428,12.929 C0.428,15.196624 0.986965016,17.2880481 2.1044955,19.2034722 C3.22222576,21.1180972 4.73850327,22.6347742 6.65372757,23.7525045 C8.56895188,24.8702348 10.660376,25.429 12.9281998,25.429 C15.1960235,25.429 17.2876474,24.8702348 19.202672,23.7525045 C21.1176965,22.634974 22.633974,21.1184967 23.7517043,19.2034722 C24.8692348,17.2880481 25.428,15.1964242 25.428,12.929 C25.428,10.661376 24.8692348,8.56955233 23.751904,6.6545278 L23.751904,6.6545278 Z M14.4916237,19.5059286 C14.3827474,19.3758763 14.3449903,19.2671998 14.3777531,19.1800988 C14.3669653,19.234437 14.3288087,19.2831816 14.2638824,19.3265324 C14.2095442,19.2614064 14.1116554,19.179899 13.9708154,19.0824097 C13.8295758,18.9845209 13.7320866,18.9032133 13.6777483,18.8378875 C13.655973,18.8055243 13.6262068,18.7593767 13.58825,18.6996445 C13.5502931,18.6399124 13.5015484,18.5614016 13.4418163,18.4637126 C13.3824837,18.3660235 13.339133,18.2819191 13.311764,18.2111994 C13.2847947,18.1406795 13.2823974,18.1001256 13.3037731,18.0893379 C13.0976073,18.1764389 12.7991464,18.1167068 12.40859,17.9103412 C12.3326763,17.8669904 12.2186059,17.7531198 12.0667783,17.5685295 C11.9149508,17.384139 11.7575297,17.3028313 11.5947146,17.3244068 C11.5405761,17.3351946 11.4672594,17.354173 11.3749642,17.3813421 C11.2828689,17.4085113 11.2041583,17.4218961 11.1390323,17.4218961 C11.0739063,17.4218961 10.987005,17.4003206 10.8785282,17.3567701 C10.7918267,17.324207 10.6751592,17.2616781 10.5287256,17.1695827 C10.3822919,17.0774873 10.2818061,17.0201525 10.2276676,16.9987767 C10.0866278,16.922863 10.0161079,16.8849061 10.0161079,16.8849061 L9.75560384,16.7550536 C9.69047783,16.7224906 9.62255499,16.6711489 9.5520351,16.6004293 C9.48151521,16.5299094 9.4355674,16.4565927 9.41379214,16.3806789 C9.39221665,16.3155529 9.36504751,16.1853008 9.33248451,15.9899228 C9.2999215,15.7945447 9.25637097,15.653505 9.20223247,15.5668035 C9.13730623,15.4583267 9.04501108,15.3498499 8.92554679,15.2413731 C8.80628227,15.1328964 8.6978055,15.0785581 8.60011648,15.0785581 C8.68701776,15.0785581 8.68701776,15.0056409 8.60011648,14.8588077 C8.5132152,14.7119745 8.43730143,14.6062946 8.37217542,14.5413683 C8.35040015,14.5195931 8.28527414,14.449273 8.17679737,14.3296089 C8.0683206,14.2101446 7.97602544,14.1074613 7.90011168,14.0203602 C7.82419792,13.9334589 7.75887213,13.8331729 7.70473363,13.7191024 C7.65059513,13.605032 7.63960761,13.5103396 7.67217062,13.4342261 C7.68295837,13.4234383 7.67217062,13.4070569 7.63960761,13.3854814 C7.60704461,13.3639059 7.56649067,13.3419309 7.51754628,13.3203554 C7.46880165,13.2987799 7.42265407,13.2798015 7.37930332,13.2634201 C7.33575279,13.2472385 7.30318978,13.2390478 7.28161429,13.2390478 C7.30338956,13.2827981 7.32776187,13.3611091 7.35493101,13.4751795 C7.38210014,13.58925 7.41186633,13.6733544 7.44442934,13.7276927 C7.4662046,13.7708437 7.55829998,13.9284646 7.72111502,14.1993569 C8.00339435,14.6550392 8.13344661,14.9918566 8.11187112,15.2088101 C8.04674511,15.2301859 8.00319458,15.2197977 7.98161909,15.1762471 C7.95984383,15.1330961 7.94346243,15.073364 7.93267469,14.9972505 C7.92188694,14.9215365 7.9110992,14.8671982 7.90011168,14.8346352 C7.86754867,14.7693094 7.78344422,14.6987895 7.64779831,14.622676 C7.5121524,14.546962 7.42804795,14.4708485 7.39548494,14.3947349 C7.40647246,14.3947349 7.41985725,14.3897406 7.43623864,14.3785533 C7.45262003,14.3675658 7.4662046,14.3623717 7.47699234,14.3623717 C7.48797986,14.2648824 7.43104454,14.1400243 7.30618638,13.987997 C7.18132822,13.8359697 7.12998654,13.7274929 7.15156203,13.6623669 C7.06466075,13.5972409 6.98874699,13.4697857 6.92362097,13.2800013 C6.85849496,13.0900171 6.80415669,12.9679557 6.76080593,12.9136175 C6.71745518,12.8486912 6.66331668,12.7917559 6.59819066,12.7428115 C6.53306465,12.6940669 6.45175701,12.6399284 6.35406799,12.5801962 C6.25637896,12.5204641 6.19125294,12.4799102 6.15868994,12.4581349 C6.13691467,12.4475469 6.09356392,12.3988023 6.0284379,12.311901 C5.67044458,11.8777942 5.56196781,11.6444592 5.70300759,11.6118962 C5.56196781,11.6444592 5.44530035,11.5387793 5.35300519,11.2944568 C5.26071004,11.0503342 5.23094386,10.862947 5.26350686,10.7328948 L5.23094386,10.7167132 C5.24193137,10.6731626 5.24732525,10.5459072 5.24732525,10.3341478 C5.24732525,10.1223883 5.26090981,9.92980708 5.28807895,9.7562043 C5.31524809,9.58260151 5.36678954,9.49570023 5.4427033,9.49570023 C5.36678954,9.50648797 5.30985421,9.43856513 5.27189733,9.29233126 C5.23394045,9.14569783 5.23114363,9.04521198 5.26370664,8.99107348 C5.27449438,8.95851048 5.32343878,8.98048551 5.41014029,9.0561995 C5.4968418,9.13191349 5.54578619,9.18105766 5.55657394,9.20263315 C5.69761372,9.12651962 5.75195199,9.02903037 5.71938898,8.90956608 C5.69761372,8.86621532 5.58374308,8.75234468 5.37757728,8.56775438 C4.91090742,8.26409933 4.67217861,8.1174659 4.66139087,8.12825365 C4.72631711,8.00898913 4.71013549,7.90590623 4.61244647,7.81900495 C4.5039697,7.88413097 4.4416405,7.90031259 4.42525911,7.86794935 C4.4090775,7.83538635 4.39549293,7.77585397 4.38450541,7.68895269 C4.37371766,7.60225119 4.34654853,7.55350656 4.30319778,7.54251904 C4.2488595,7.5317313 4.18373349,7.48838054 4.10781972,7.41246678 C5.07352269,5.87161719 6.34847434,4.66718542 7.93267469,3.79897171 C7.99780071,3.78818397 8.11706522,3.78279009 8.29066801,3.78279009 C8.37736952,3.79357784 8.45887692,3.82074698 8.53479069,3.86409773 C8.61070445,3.90744848 8.68941503,3.96718063 8.77072267,4.04309439 C8.85223007,4.11880838 8.91455927,4.17314665 8.95791002,4.20570966 C8.97968529,4.14058364 8.95251615,4.04289462 8.87660239,3.91264258 C8.89817788,3.84751657 9.01764217,3.78239055 9.23459571,3.71726453 C9.48411226,3.68470152 9.6469273,3.6900954 9.72284106,3.73364592 C9.65791482,3.6359569 9.54943805,3.50031099 9.39741075,3.3267082 L9.31610311,3.40801584 C9.22920183,3.33210208 9.00146055,3.37005896 8.63247971,3.52188648 C8.61090422,3.53267423 8.55656595,3.56264018 8.46966467,3.61138481 C8.38296316,3.66012944 8.3122435,3.69548927 8.258105,3.71706476 C8.19297898,3.73884002 8.12785297,3.74423389 8.06272695,3.73344615 C8.58353531,3.45136659 9.09355593,3.22861963 9.5927888,3.06600436 C9.62515204,3.08757985 9.67949031,3.13372743 9.75540407,3.20424732 C9.83131783,3.27476721 9.89104998,3.32630866 9.93440073,3.35887167 C9.90183772,3.33729618 9.88006246,3.34788415 9.86927471,3.39143467 C9.82592396,3.52148693 9.82592396,3.62996371 9.86927471,3.71686499 C9.92341321,3.79297852 9.99672992,3.8361295 10.0890251,3.84711702 C10.1813202,3.85790476 10.292394,3.85251089 10.4226461,3.83073563 C10.5528981,3.80916014 10.6397994,3.79817262 10.6831501,3.79817262 L10.8459652,3.81455401 C11.1931708,3.84711702 11.3288167,3.81455401 11.2529029,3.71686499 C11.2854659,3.76041551 11.3234228,3.84991384 11.3667736,3.98555975 C11.4101243,4.12120565 11.4590687,4.21629763 11.5132072,4.27043613 C11.5675455,4.2268856 11.5783332,4.15097184 11.5457702,4.04249507 C11.5132072,3.9340183 11.5132072,3.85790476 11.5457702,3.81455401 C11.556558,3.79297852 11.589121,3.77100348 11.6434592,3.74942799 C11.6977975,3.7278525 11.7601267,3.70348019 11.8306466,3.67631105 C11.9011665,3.64914192 11.9473141,3.63016348 11.9690893,3.61937573 C12.0342153,3.57582521 11.9906648,3.49991144 11.8388373,3.39143467 C11.817062,3.38044716 11.7711142,3.36426554 11.7005943,3.34249028 C11.6300744,3.32111456 11.5675455,3.29913952 11.513407,3.27756403 C11.4592685,3.25598854 11.4023332,3.22602258 11.342601,3.1880657 C11.2828689,3.15010882 11.2556997,3.10675807 11.2610936,3.05781367 C11.2664875,3.00886927 11.2964534,2.94654007 11.3505919,2.87062631 C11.415718,2.81648781 11.5215977,2.79471255 11.6680313,2.8055003 C11.814465,2.81628804 11.9257386,2.8432574 12.0016523,2.88680793 C12.2947194,3.04962297 12.3380702,3.1962564 12.1319044,3.32630866 C12.2405809,3.3370964 12.3708329,3.38044716 12.5226605,3.45636092 C12.674488,3.53247445 12.7342201,3.61378209 12.7016571,3.70068337 C12.7885584,3.53786833 12.8752599,3.45636092 12.9621612,3.45636092 C13.0162997,3.46734844 13.0680409,3.54066515 13.1167855,3.67631105 C13.1655302,3.81195696 13.1952964,3.8850739 13.2060841,3.89606142 C13.2931851,4.01532593 13.3794871,4.04249507 13.4667879,3.97736905 C13.5534894,3.91224304 13.6429878,3.81735083 13.7352829,3.69249267 C13.8273783,3.56783428 13.8789198,3.51089896 13.8897075,3.52168671 C13.7812307,3.47853573 13.7700434,3.4349852 13.8573443,3.39163445 C14.0197598,3.29394542 14.1663932,3.26677629 14.2966452,3.31032681 C14.3290085,3.3319023 14.3727588,3.3808467 14.4266975,3.45656069 C14.523987,3.65213851 14.5076056,3.74423389 14.3779529,3.73344615 C14.4754421,3.82034743 14.5157963,3.9288242 14.4998144,4.05887646 C14.4836328,4.18912849 14.3991288,4.24886064 14.2473013,4.23787312 C14.1931628,4.23787312 14.1142524,4.21070398 14.0111695,4.15656549 C13.9080866,4.10242699 13.829376,4.0726608 13.7750378,4.06706716 C13.7206995,4.06147351 13.6447857,4.09143947 13.5470967,4.15656549 C13.503746,4.21090376 13.4468106,4.30319891 13.3762907,4.43325117 C13.3055711,4.56370298 13.2432419,4.65579836 13.1889036,4.70993686 C13.0262883,4.8727519 12.7547968,4.93248404 12.3750282,4.88893352 C12.4075912,4.88893352 12.4047944,4.92149652 12.3668375,4.98662254 C12.3286808,5.05174856 12.2773392,5.12506527 12.2122131,5.2063729 C12.1470871,5.28768054 12.1091302,5.33382812 12.0983425,5.34461586 C12.0006535,5.45309263 11.9355274,5.57795079 11.9029644,5.71899057 C11.9029644,5.74076583 11.8975706,5.81408255 11.886583,5.93874093 C11.8755955,6.0635991 11.85402,6.15869107 11.821457,6.22361731 C11.9517091,6.19105431 12.054792,6.2563801 12.1307057,6.41899537 C12.1958317,6.57102266 12.1958317,6.6523303 12.1307057,6.66331781 C12.4888988,6.60917932 12.8035414,6.63075481 13.075033,6.72844383 C13.4655893,6.86948361 13.6883363,7.01052339 13.7424748,7.15156317 C13.807401,7.05387414 13.9646224,7.0482805 14.2143387,7.13518178 C14.3120277,7.18932028 14.3985295,7.35233509 14.4748428,7.62342713 C14.5181935,7.7860424 14.5915103,7.92728195 14.6945932,8.04654647 C14.7978758,8.16581098 14.9087499,8.19837399 15.0284139,8.14423549 L15.0769588,8.11167248 C15.1205093,8.09009699 15.1556694,8.07091878 15.1828385,8.05473716 C15.2100076,8.03855554 15.2397738,8.01678028 15.2721371,7.98961115 C15.3048998,7.96244201 15.3238783,7.9380697 15.3290724,7.91649421 C15.3342665,7.89491872 15.3262756,7.87294368 15.3048998,7.85136819 C15.2287863,7.78624217 15.171851,7.69674384 15.1340939,7.5828732 C15.0963368,7.46900256 15.1045275,7.36851671 15.1584662,7.28161543 C15.1910292,7.23826468 15.2777307,7.17313866 15.4189703,7.08623738 C15.56001,6.9993361 15.6469113,6.91263459 15.6792746,6.82573331 C15.7230249,6.68469353 15.6686866,6.56802607 15.5168591,6.47573091 C15.3648318,6.38363553 15.2887182,6.29953108 15.2887182,6.22341754 C15.2887182,6.16907927 15.3240781,6.10415303 15.3943982,6.02803949 C15.4651178,5.95212573 15.4950838,5.88140607 15.4840963,5.81647982 C15.4840963,5.78371704 15.4649181,5.71599397 15.427161,5.61291108 C15.3894038,5.50962841 15.3674288,5.43371464 15.3620349,5.38497002 C15.3566411,5.33602562 15.3812131,5.2790903 15.4351519,5.21416405 C15.5108659,5.17061353 15.6900623,5.17341035 15.9721419,5.22215498 C16.2542214,5.27109938 16.4388117,5.32264082 16.525713,5.37677932 C16.5584758,5.39835481 16.6289957,5.43091782 16.7374724,5.47446835 C16.8459492,5.51761933 16.9410412,5.5637669 17.0225486,5.6127113 C17.1034567,5.66145593 17.149804,5.70740373 17.160392,5.75095426 L17.0792841,5.75095426 C17.1551979,5.81628005 17.2013455,5.89199404 17.2173273,5.97889532 C17.2337087,6.06599637 17.1931548,6.13092262 17.0956655,6.17447314 C17.160392,6.16348562 17.2476928,6.17986702 17.3561696,6.22321777 C17.5297724,6.28834379 17.5351663,6.34807593 17.3723512,6.40221443 C17.4049142,6.39122691 17.450862,6.38063894 17.5103944,6.36965142 C17.5701265,6.35886367 17.6160743,6.34248228 17.6488371,6.32090679 C17.6702128,6.30991928 17.6975818,6.29114061 17.729945,6.26397147 C17.7627078,6.23680234 17.7868803,6.22042095 17.8032617,6.21522685 C17.8196431,6.20983297 17.8438156,6.20423933 17.8765784,6.19884546 C17.9089417,6.19345158 17.9413049,6.20164228 17.9738679,6.22321777 C17.9850552,6.22321777 18.0092277,6.19604863 18.0471846,6.14191013 C18.0847419,6.08777164 18.1258952,6.03343336 18.1690462,5.97929487 C18.2123969,5.92515637 18.250154,5.89798723 18.2829168,5.89798723 C18.31528,5.89798723 18.345246,5.91137203 18.3722154,5.93854116 C18.3995843,5.9657103 18.42096,5.99547648 18.4373414,6.02803949 C18.453523,6.0606025 18.4697046,6.09596233 18.486086,6.13371944 C18.5024674,6.17167632 18.5156524,6.20164228 18.5266399,6.22321777 C18.5482154,6.27735627 18.5999567,6.33449136 18.6810645,6.39402373 C18.7623722,6.4535561 18.8139136,6.5106912 18.8356889,6.5648297 C18.8466764,6.59739271 18.8678523,6.67890011 18.9006151,6.80915215 C18.9329783,6.93940418 18.9767286,7.02890251 19.0306674,7.07764714 C19.0850056,7.12659154 19.1663133,7.16714547 19.27479,7.19970848 C19.2965653,7.21069599 19.3455097,7.20510235 19.4212237,7.18352686 C19.4971375,7.16175159 19.5596664,7.15635772 19.6084111,7.16714547 C19.6575552,7.17793321 19.6817278,7.22128397 19.6817278,7.2973975 C19.7468538,7.23227148 19.779217,7.18872096 19.779217,7.16714547 C19.7902045,7.30818525 19.8251648,7.42225566 19.8850967,7.50895717 C19.9448289,7.59565868 20.0397211,7.63381533 20.1699731,7.62282781 L20.1374101,7.9810209 C20.1050469,8.0351594 20.0235395,8.07571333 19.8930877,8.10288247 C19.7628356,8.13005161 19.681528,8.15462369 19.6487652,8.17619918 C19.616402,8.18698693 19.5374916,8.25211294 19.4128332,8.37157723 C19.2879751,8.49104152 19.2366334,8.56156141 19.2582089,8.5831369 C19.0740181,8.3769711 18.7971327,8.31723896 18.4283516,8.40414024 C18.01602,8.46926626 17.7337407,8.53439227 17.5821129,8.59951829 C17.4085101,8.68641957 17.2890459,8.76772721 17.2239198,8.84364097 C17.2129323,8.85442871 17.1943534,8.89258537 17.1669845,8.95751161 C17.1398154,9.02263763 17.112846,9.08236977 17.0858767,9.13650827 C17.0585077,9.19064677 17.0343352,9.21781591 17.0127597,9.21781591 C17.0780855,9.20722793 17.1510027,9.15548671 17.2325101,9.06339133 C17.3138177,8.97109618 17.3655589,8.9197545 17.3869347,8.90876698 C17.6688144,8.72437645 17.9021494,8.65925044 18.0877385,8.71478735 C18.3262676,8.77991336 18.3642244,8.86681464 18.2014094,8.97529141 C18.1800337,8.9968669 18.1228986,9.0050576 18.0308032,8.99966373 C17.9387078,8.99426985 17.8761789,8.9968669 17.8434161,9.00785442 C17.9413049,9.02942991 18.0226125,9.05939587 18.0879383,9.09715298 C18.1528646,9.13510986 18.1692459,9.18665131 18.1366829,9.25177732 C18.310086,9.34946635 18.3428487,9.45794312 18.234372,9.57740741 C18.0931324,9.71864696 17.925323,9.77817933 17.7297452,9.75640407 C17.762508,9.75640407 17.762508,9.77817933 17.7297452,9.82153009 L17.4528598,10.0005267 C17.4312843,10.0111147 17.3607644,10.0382839 17.2413001,10.0818344 C17.1218358,10.1249854 17.0405282,10.1741295 16.9969776,10.228268 C16.9646144,10.2716188 16.948233,10.3367448 16.948233,10.4238459 C16.948233,10.5107471 16.9428391,10.5758732 16.9318516,10.6192239 C16.9212637,10.6627744 16.8777131,10.6733624 16.8019991,10.6517869 C16.7692364,10.7169129 16.6689503,10.7684544 16.5007414,10.8062115 C16.3325325,10.8441684 16.2214586,10.9011037 16.1671204,10.9770175 C16.2320466,11.0639187 16.2268525,11.1506202 16.150739,11.2375215 C16.0204869,11.3461981 15.9064165,11.3352105 15.8089273,11.2049585 C15.7547888,11.2267338 15.7140351,11.2808723 15.6868659,11.3677736 C15.6598966,11.4546748 15.6189431,11.514407 15.5650044,11.5467702 C15.6411179,11.6662345 15.6299306,11.7531358 15.5326411,11.8072743 C15.5434289,11.8072743 15.5678012,11.8182618 15.6057581,11.8398373 C15.6435152,11.8614128 15.6842689,11.8885819 15.7278194,11.9211449 C15.7711702,11.9537079 15.7981395,11.9700893 15.8089273,11.9700893 C15.7657763,12.0675786 15.7058444,12.1163232 15.6299306,12.1163232 C15.6950566,12.2901258 15.6139488,12.4801099 15.3860077,12.686076 C15.3422574,12.7294267 15.2745343,12.7727775 15.1822392,12.816328 C15.0897443,12.8596787 15.0058396,12.8948388 14.929726,12.9220079 C14.8536125,12.9491771 14.8104615,12.9681555 14.7996738,12.9789433 C14.691197,13.0768321 14.6096896,13.1771181 14.5555511,13.280201 C14.5014126,13.3832839 14.4932219,13.48357 14.530979,13.581259 C14.5689359,13.6791478 14.6694217,13.7438743 14.8324366,13.7768369 L14.8482186,13.9068891 L14.8482186,14.1997564 L14.8646,14.3300085 C14.8757873,14.4059222 14.883978,14.4738451 14.8891721,14.533777 C14.8943662,14.5935091 14.8943662,14.6692231 14.8891721,14.761718 C14.883978,14.8538134 14.8594059,14.9053549 14.8160552,14.9159428 C14.7729042,14.9271301 14.713172,14.9159428 14.6370585,14.8833798 C14.5499575,14.8400291 14.4470743,14.6013003 14.32761,14.1673932 C14.3058348,14.0589164 14.240509,13.9288642 14.1320322,13.7768369 C14.0778937,13.8309754 14.0317461,13.8661354 13.9937893,13.882317 C13.9562319,13.8986984 13.928863,13.901695 13.9128812,13.8905077 C13.8964998,13.87972 13.8667336,13.8551479 13.8231831,13.8173908 C13.7798323,13.7796337 13.7420752,13.7494679 13.7093124,13.7280922 C13.6551739,13.6955292 13.5602817,13.6683601 13.424436,13.6467846 C13.2889899,13.6252091 13.2044859,13.5978402 13.1723224,13.565477 C12.9116186,13.7610548 12.7541974,13.7119106 12.7000589,13.4192431 C12.6784835,13.4733816 12.6810805,13.5466983 12.7082496,13.6389934 C12.7354188,13.7312886 12.7490033,13.7826303 12.7490033,13.793418 C12.6730896,13.9346576 12.5538251,13.9454453 12.39101,13.8257813 C12.325884,13.7610548 12.1766535,13.7528641 11.9433186,13.8016087 C11.7099837,13.8503533 11.5553593,13.858544 11.4794456,13.8257813 C11.4904331,13.8257813 11.5120086,13.8421626 11.5445716,13.8749254 C11.5771346,13.8963011 11.5989098,13.9124828 11.6096976,13.9234703 C11.5987101,13.9670208 11.5825285,13.999384 11.5607532,14.0211593 C11.5389779,14.042535 11.5172027,14.0507257 11.4956272,14.0455316 C11.4738519,14.0401377 11.4494796,14.0401377 11.4223105,14.0455316 C11.3951413,14.0507257 11.370769,14.0589164 11.3489938,14.0699039 C11.305643,14.1022672 11.2515045,14.1592025 11.1863785,14.2405101 C11.1212525,14.3218178 11.0725078,14.3733592 11.0399448,14.3949347 C11.1048711,14.5683377 11.134837,14.7013866 11.1294432,14.7934819 C11.1238495,14.8859769 11.1076679,15.0216228 11.0804988,15.2004197 C11.0533296,15.3794163 11.0397451,15.5234527 11.0397451,15.6319295 C11.0397451,15.8053325 11.0912865,16.006504 11.1943694,16.2342452 C11.2974523,16.4619865 11.4195136,16.6192079 11.5605534,16.7061092 C11.636667,16.7496597 11.766919,16.7766291 11.9513095,16.7872171 C12.1357001,16.7982046 12.2659521,16.7872171 12.3418658,16.7548538 C12.4069919,16.7224906 12.4557365,16.6843339 12.4882995,16.641183 C12.5208625,16.5976324 12.5480316,16.5351035 12.5696071,16.4537958 C12.5913824,16.372688 12.6077638,16.3157526 12.6185515,16.2831896 C12.6944653,16.0770238 12.8355051,15.9685471 13.0414711,15.9575596 C13.1721227,15.946572 13.2666153,15.9605562 13.3265473,15.9981135 C13.3862794,16.0360704 13.4106517,16.0876118 13.3996642,16.1527378 C13.3886767,16.2178639 13.3671012,16.2855869 13.3347379,16.3563066 C13.3021749,16.4270262 13.2614212,16.5053373 13.2126766,16.5924383 C13.1641318,16.6795394 13.1341658,16.7444656 13.1235778,16.7880162 C13.1018026,16.8749174 13.0826243,16.996779 13.0666425,17.1543999 C13.0502611,17.3116213 13.0364768,17.4067133 13.025689,17.4392763 C13.0474643,17.4500641 13.1287719,17.4554579 13.2698117,17.4554579 C13.2698117,17.4338825 13.2780024,17.3985226 13.2943838,17.349778 C13.3103656,17.3008336 13.3185563,17.2710674 13.3185563,17.2602797 C13.3728946,17.3471809 13.4597959,17.3957258 13.5792602,17.4067133 C13.6985247,17.4175011 13.785426,17.3741503 13.8397642,17.2764613 C13.8615395,17.3090243 13.9266655,17.3905317 14.0353421,17.5209835 C14.1438188,17.650836 14.203551,17.7593128 14.2143387,17.8464138 C14.2251265,17.8899643 14.246702,17.9602845 14.2790652,18.0581733 C14.311828,18.1558623 14.3228155,18.2237851 14.311828,18.2619418 C14.3010402,18.2994991 14.246702,18.3186773 14.1492127,18.3186773 C14.1058619,18.3186773 14.0786928,18.3350587 14.0679051,18.367422 C14.0567178,18.4001847 14.0567178,18.4405389 14.0679051,18.4894833 C14.0788926,18.5382279 14.0924772,18.5843755 14.108459,18.6277262 C14.1248404,18.6708772 14.1464159,18.7172246 14.1733852,18.7659692 C14.2009539,18.8145141 14.2143387,18.84448 14.2143387,18.8552678 C14.409517,19.2132611 14.6754149,19.3109501 15.0118328,19.1483348 C15.0118328,19.4629774 14.9357192,19.6363804 14.7836919,19.6689434 C14.6975897,19.6905189 14.6001005,19.6357811 14.4916237,19.5059286 L14.4916237,19.5059286 Z M14.7347475,23.1829515 C14.7133718,23.0744747 14.7023843,22.9877732 14.7035829,22.9230468 C14.6923956,22.8359457 14.7305523,22.7192782 14.8172538,22.5730444 C14.9039553,22.4268105 14.9473061,22.3153371 14.9473061,22.2394234 C14.7737033,22.1960726 14.7085773,22.0548331 14.7517282,21.816304 C14.7735035,21.653489 14.9307249,21.4365354 15.2235922,21.1652436 C15.4301575,20.9806533 15.494884,20.7201493 15.41917,20.3839312 C15.3864072,20.2428914 15.3592381,20.0365259 15.3376626,19.765234 C15.3162869,19.4939422 15.2943119,19.303958 15.2725366,19.1954813 C15.2725366,19.2280443 15.3240781,19.2578105 15.4273607,19.2849796 C15.5304436,19.311949 15.5927728,19.3473088 15.6145481,19.3904598 C15.6361236,19.3580965 15.6630929,19.2983644 15.6958557,19.2114631 C15.728219,19.1245618 15.7609817,19.0596356 15.7931452,19.0160851 C15.8149205,18.9835221 15.8608683,18.9429681 15.9315879,18.8940237 C16.0021078,18.8452791 16.0482554,18.8155129 16.0698309,18.8047252 C16.0912066,18.7939374 16.140151,18.7587774 16.2160648,18.6990452 C16.2919785,18.6393131 16.3545075,18.5933653 16.4034519,18.5608023 C16.4525961,18.5282393 16.5173225,18.503867 16.5988299,18.4876853 C16.6803373,18.4713039 16.7370729,18.4956763 16.7694361,18.5608023 C16.8237744,18.6259283 16.8131864,18.7262144 16.7370729,18.86206 C16.6609594,18.997706 16.6609594,19.0927979 16.7370729,19.1471362 C16.7480604,19.1143734 16.7586484,19.0436538 16.7694361,18.935177 C16.7804236,18.8267002 16.8131864,18.7451928 16.8673249,18.6908545 C16.9322512,18.6259283 16.9945804,18.5877716 17.0545123,18.5771837 C17.1140447,18.5659964 17.1681832,18.5741871 17.2169278,18.601556 C17.2658722,18.6285253 17.3228075,18.6662824 17.3877337,18.7154266 C17.4528598,18.7639715 17.5125919,18.7939374 17.5667304,18.8047252 C17.7293457,18.8588637 17.9249235,18.978328 18.1528646,19.1627185 C18.141877,19.151731 18.141877,19.1383462 18.1528646,19.1219648 C18.1638521,19.1057832 18.1852278,19.0896016 18.2179906,19.0732202 C18.2503538,19.0572383 18.28012,19.0408569 18.3072891,19.0244755 C18.3342585,19.0080941 18.3640247,18.9949091 18.3965877,18.9839216 L18.4455321,18.9675402 C18.5212461,18.9675402 18.5755843,18.9623461 18.6079476,18.9511588 C18.6403108,18.9403711 18.6868579,18.9511588 18.7461905,18.9839216 C18.8057229,19.0162848 18.8466764,19.0406572 18.8680521,19.0570385 C18.8898274,19.0732202 18.9277842,19.1029864 18.9819227,19.1465369 C19.0360612,19.1898876 19.0744177,19.2224506 19.0955936,19.2440261 C19.1283564,19.2654018 19.1878888,19.3037583 19.2745903,19.3578968 C19.3616913,19.4120353 19.4294144,19.455386 19.4783588,19.487949 C19.5273032,19.5203123 19.5706539,19.5692567 19.6082113,19.6339831 C19.6461682,19.6995087 19.6601523,19.7700286 19.6491648,19.8459424 C19.7142908,19.8569299 19.844343,19.9000809 20.0397211,19.9759946 C20.0724839,19.9975701 20.1400072,20.0167483 20.2432898,20.0327302 C20.3465725,20.0491116 20.4142956,20.0736836 20.4468586,20.1060469 C18.8746446,21.7669601 16.9700083,22.7923952 14.7347475,23.1829515 L14.7347475,23.1829515 Z" id="Shape" fill="#AAAAAA"></path>
    </g>
</svg>
