
<svg width="25px" height="24px" viewBox="156 112 25 24" version="1.1" xmlns="http://www.w3.org/2000/svg" xmlns:xlink="http://www.w3.org/1999/xlink">
    <!-- Generator: Sketch 42 (36781) - http://www.bohemiancoding.com/sketch -->
    <desc>Created with Sketch.</desc>
    <defs></defs>
    <g id="Group" stroke="none" stroke-width="1" fill="none" fill-rule="evenodd" transform="translate(156.000000, 112.000000)">
        <path d="M5.07468354,6.7585443 C5.98575949,6.7585443 6.76344937,6.43639241 7.40791139,5.79177215 C8.05253165,5.1471519 8.37484177,4.3693038 8.37484177,3.45838608 C8.37484177,2.54746835 8.05253165,1.76962025 7.40791139,1.125 C6.76344937,0.480379747 5.98575949,0.15806962 5.07468354,0.15806962 C4.16360759,0.15806962 3.38591772,0.480379747 2.74129747,1.125 C2.09683544,1.76962025 1.77452532,2.54731013 1.77452532,3.45838608 C1.77452532,4.36946203 2.09683544,5.1471519 2.74129747,5.79177215 C3.38591772,6.43623418 4.16360759,6.7585443 5.07468354,6.7585443 L5.07468354,6.7585443 Z" id="Shape" fill="#F8F8F8"></path>
        <path d="M9,11.9088608 C9.96677215,12.8754747 11.1333861,13.359019 12.5,13.359019 C13.8666139,13.359019 15.0332278,12.8754747 16,11.9088608 C16.9667722,10.9417722 17.4501582,9.77515823 17.4501582,8.40870253 C17.4501582,7.04224684 16.9667722,5.87563291 16,4.90870253 C15.0332278,3.94177215 13.8666139,3.45838608 12.5,3.45838608 C11.1333861,3.45838608 9.96677215,3.94193038 9,4.90870253 C8.03322785,5.87547468 7.54968354,7.04208861 7.54968354,8.40870253 C7.54968354,9.77531646 8.03322785,10.9419304 9,11.9088608 L9,11.9088608 Z" id="Shape" fill="#F8F8F8"></path>
        <path d="M19.9256329,6.7585443 C20.8363924,6.7585443 21.6142405,6.43639241 22.2588608,5.79177215 C22.9033228,5.1471519 23.2254747,4.3693038 23.2254747,3.45838608 C23.2254747,2.54746835 22.9033228,1.76962025 22.2588608,1.125 C21.6142405,0.480379747 20.8363924,0.15806962 19.9256329,0.15806962 C19.0143987,0.15806962 18.2367089,0.480379747 17.5920886,1.125 C16.9477848,1.76962025 16.6254747,2.54731013 16.6254747,3.45838608 C16.6254747,4.36946203 16.9477848,5.1471519 17.5920886,5.79177215 C18.2367089,6.43623418 19.0143987,6.7585443 19.9256329,6.7585443 L19.9256329,6.7585443 Z" id="Shape" fill="#F8F8F8"></path>
        <path d="M23.277057,6.75870253 C23.2256329,6.75870253 23.0387658,6.84889241 22.7164557,7.02943038 C22.3943038,7.20996835 21.9751582,7.39256329 21.4596519,7.57737342 C20.9441456,7.76202532 20.4325949,7.85443038 19.9256329,7.85443038 C19.3496835,7.85443038 18.778481,7.7556962 18.2110759,7.55791139 C18.2539557,7.87579114 18.2754747,8.15949367 18.2754747,8.40870253 C18.2754747,9.60332278 17.9273734,10.7033228 17.2310127,11.7088608 C18.6234177,11.7518987 19.7620253,12.3018987 20.6474684,13.3591772 L22.3748418,13.3591772 C23.0795886,13.3591772 23.6726266,13.1848101 24.1537975,12.8368671 C24.6349684,12.4889241 24.8756329,11.9795886 24.8756329,11.3093354 C24.8757911,8.27547468 24.343038,6.7585443 23.277057,6.75870253 L23.277057,6.75870253 Z" id="Shape" fill="#F8F8F8"></path>
        <path d="M21.3503165,17.1811709 C21.2601266,16.6783228 21.1460443,16.2120253 21.0085443,15.7824367 C20.8710443,15.3526899 20.6862342,14.9338608 20.4544304,14.5256329 C20.2223101,14.1175633 19.9558544,13.7693038 19.6549051,13.4813291 C19.3539557,13.1933544 18.9865506,12.9636076 18.5526899,12.7916139 C18.1186709,12.6197785 17.6393987,12.5338608 17.1153481,12.5338608 C17.0292722,12.5338608 16.8446203,12.6262658 16.5609177,12.8110759 C16.2772152,12.9957278 15.9637658,13.2022152 15.6199367,13.4297468 C15.2761076,13.6572785 14.8166139,13.8636076 14.2405063,14.0484177 C13.6643987,14.2332278 13.0843354,14.3256329 12.5001582,14.3256329 C11.9158228,14.3256329 11.3356013,14.2332278 10.7598101,14.0484177 C10.1838608,13.8636076 9.72420886,13.6572785 9.38037975,13.4297468 C9.03655063,13.2022152 8.72294304,12.9957278 8.43939873,12.8110759 C8.1556962,12.6262658 7.9710443,12.5338608 7.88496835,12.5338608 C7.36075949,12.5338608 6.88164557,12.6197785 6.44762658,12.7916139 C6.01360759,12.9636076 5.64620253,13.1933544 5.34541139,13.4813291 C5.04446203,13.7691456 4.77816456,14.1175633 4.5460443,14.5256329 C4.31408228,14.9338608 4.12927215,15.3525316 3.99177215,15.7824367 C3.85427215,16.2120253 3.74050633,16.6783228 3.65015823,17.1811709 C3.55981013,17.684019 3.49968354,18.1522152 3.46962025,18.5863924 C3.43955696,19.0204114 3.42452532,19.4651899 3.42452532,19.9207278 C3.42452532,20.9518987 3.73813291,21.7662975 4.36550633,22.3634494 C4.99303797,22.9606013 5.82674051,23.2593354 6.8664557,23.2593354 L18.1335443,23.2593354 C19.1734177,23.2593354 20.006962,22.9606013 20.6346519,22.3634494 C21.2620253,21.7662975 21.5756329,20.9518987 21.5756329,19.9207278 C21.5756329,19.4651899 21.560443,19.0205696 21.5308544,18.5863924 C21.5004747,18.1522152 21.4403481,17.684019 21.3503165,17.1811709 L21.3503165,17.1811709 Z" id="Shape" fill="#F8F8F8"></path>
        <path d="M7.76882911,11.7088608 C7.07262658,10.7033228 6.72468354,9.60332278 6.72484177,8.40870253 C6.72484177,8.15949367 6.74636076,7.87594937 6.78924051,7.55791139 C6.22199367,7.75553797 5.65047468,7.85443038 5.07468354,7.85443038 C4.56756329,7.85443038 4.05632911,7.76202532 3.54066456,7.57737342 C3.02515823,7.39256329 2.60601266,7.20996835 2.28386076,7.02943038 C1.96155063,6.84889241 1.77452532,6.75870253 1.72294304,6.75870253 C0.657278481,6.75870253 0.124367089,8.27563291 0.124367089,11.3093354 C0.124367089,11.9795886 0.365031646,12.4889241 0.846202532,12.8368671 C1.32753165,13.1848101 1.92056962,13.359019 2.62515823,13.359019 L4.35268987,13.359019 C5.23797468,12.3018987 6.37658228,11.7518987 7.76882911,11.7088608 L7.76882911,11.7088608 Z" id="Shape" fill="#F8F8F8"></path>
    </g>
</svg>
