
<svg width="26px" height="25px" viewBox="160 25 26 25" version="1.1" xmlns="http://www.w3.org/2000/svg" xmlns:xlink="http://www.w3.org/1999/xlink">
    <!-- Generator: Sketch 42 (36781) - http://www.bohemiancoding.com/sketch -->
    <desc>Created with Sketch.</desc>
    <defs></defs>
    <g id="plane12-copy" stroke="none" stroke-width="1" fill="none" fill-rule="evenodd" transform="translate(161.000000, 25.000000)">
        <path d="M24.5852909,3.07251795 C24.963117,1.93903969 24.8922474,1.06534404 24.3724648,0.451213606 C23.7585518,-0.0683516114 22.8846387,-0.139003785 21.7509431,0.238170128 C20.6172474,0.615996215 19.6018126,1.25360491 18.7044213,2.15099621 L15.8705083,4.98490926 L4.09268221,2.1688223 C3.90376917,2.10969187 3.72659526,2.15686578 3.56137787,2.31034404 L1.29420395,4.57751795 C1.16442134,4.70751795 1.11116047,4.86686578 1.13485613,5.05577882 C1.17029091,5.24490926 1.27072569,5.386431 1.43594308,5.48099621 L10.4335518,10.422518 L5.84616047,15.0099093 L2.41007352,14.071431 C2.38659526,14.0594745 2.33942134,14.0536049 2.26855178,14.0536049 C2.103117,14.0536049 1.96746482,14.1066484 1.86116047,14.2129527 L0.160943083,15.9309962 C0.0428996049,16.0723006 -0.0101438734,16.2201266 0.00159525708,16.3733875 C0.0250735179,16.5623006 0.101812648,16.6981701 0.231812648,16.7809962 L4.69507352,20.1281701 L8.04246482,24.591431 C8.14876917,24.721431 8.2905083,24.7979527 8.46768221,24.8218658 L8.503117,24.8218658 C8.66855178,24.8218658 8.80420395,24.7688223 8.9105083,24.6627353 L10.6107257,22.962518 C10.764204,22.7970832 10.8113779,22.6140397 10.7524648,22.4133875 L9.81376917,18.9773006 L14.4011605,14.3896919 L19.3426822,23.387518 C19.4133344,23.5409962 19.5374648,23.6355614 19.7146387,23.6709962 C19.7498561,23.6829527 19.7913779,23.6886049 19.8385518,23.6886049 C19.9800735,23.6886049 20.0922474,23.6531701 20.1748561,23.582518 L22.4424648,21.8823006 C22.6428996,21.7170832 22.7137692,21.5223006 22.6548561,21.2979527 L19.8211605,8.97077882 L22.6726822,6.11925708 C23.5698561,5.22164839 24.2074648,4.20599621 24.5852909,3.07251795 L24.5852909,3.07251795 Z" id="Shape" fill="#F8F8F8"></path>
    </g>
</svg>
