
<svg width="24px" height="25px" viewBox="727 30 24 25" version="1.1" xmlns="http://www.w3.org/2000/svg" xmlns:xlink="http://www.w3.org/1999/xlink">
    <!-- Generator: Sketch 42 (36781) - http://www.bohemiancoding.com/sketch -->
    <desc>Created with Sketch.</desc>
    <defs></defs>
    <g id="plus25" stroke="none" stroke-width="1" fill="none" fill-rule="evenodd" transform="translate(727.000000, 30.000000)">
        <path d="M23.5225733,9.20458528 C23.2043586,8.88637057 22.8179401,8.72736782 22.3633178,8.72736782 L15.272423,8.72736782 L15.272423,1.63626378 C15.272423,1.18185067 15.113211,0.795432158 14.7952055,0.477217452 C14.4769908,0.15921196 14.0907815,0 13.63595,0 L10.3634224,0 C9.90900928,0 9.52259077,0.159002746 9.20437606,0.477217452 C8.88616136,0.795432158 8.72715861,1.18185067 8.72715861,1.63626378 L8.72715861,8.72736782 L1.63626378,8.72736782 C1.18185067,8.72736782 0.795432158,8.88637057 0.477217452,9.20458528 C0.159002746,9.52279998 0,9.90900928 0,10.3636316 L0,13.6365776 C0,14.0911999 0.159002746,14.4774092 0.477217452,14.7954147 C0.795432158,15.1136294 1.18185067,15.2726322 1.63626378,15.2726322 L8.72715861,15.2726322 L8.72715861,22.3639454 C8.72715861,22.8183585 8.88616136,23.2049863 9.20437606,23.5229918 C9.52259077,23.8409973 9.90900928,24 10.3634224,24 L13.6361592,24 C14.0909907,24 14.4772,23.8409973 14.7954147,23.5229918 C15.1136294,23.2047771 15.2726322,22.8183585 15.2726322,22.3639454 L15.2726322,15.2726322 L22.363527,15.2726322 C22.8181493,15.2726322 23.2045678,15.1136294 23.5227825,14.7954147 C23.840788,14.4774092 24,14.0911999 24,13.6365776 L24,10.3636316 C23.9997908,9.90900928 23.8409973,9.52259077 23.5225733,9.20458528 L23.5225733,9.20458528 Z" id="Shape" fill="#AAAAAA"></path>
    </g>
</svg>
