
<svg width="25px" height="27px" viewBox="146 757 25 27" version="1.1" xmlns="http://www.w3.org/2000/svg" xmlns:xlink="http://www.w3.org/1999/xlink">
    <!-- Generator: Sketch 42 (36781) - http://www.bohemiancoding.com/sketch -->
    <desc>Created with Sketch.</desc>
    <defs></defs>
    <g id="Group" stroke="none" stroke-width="1" fill="none" fill-rule="evenodd" transform="translate(146.000000, 757.000000)">
        <path d="M12.5,14.5267857 C13.0603175,14.5267857 13.5456349,14.3222222 13.9547619,13.9125 C14.3642857,13.5031746 14.5694444,13.0180556 14.5694444,12.4577381 L14.5694444,2.11170635 C14.5694444,1.55119048 14.3644841,1.06626984 13.9547619,0.656944444 C13.5456349,0.247222222 13.0605159,0.0424603175 12.5,0.0424603175 C11.9394841,0.0424603175 11.4545635,0.247420635 11.0450397,0.656944444 C10.6355159,1.06626984 10.430754,1.55138889 10.430754,2.11170635 L10.430754,12.4577381 C10.430754,13.0180556 10.6355159,13.5031746 11.0450397,13.9125 C11.4545635,14.3222222 11.9396825,14.5267857 12.5,14.5267857 L12.5,14.5267857 Z" id="Shape" fill="#F8F8F8"></path>
        <path d="M23.6138889,8.98194444 C22.7462302,7.24702381 21.5259921,5.79206349 19.9525794,4.61746032 C19.5,4.27261905 18.9880952,4.13789683 18.4168651,4.21329365 C17.8456349,4.28869048 17.3930556,4.55813492 17.0589286,5.02142857 C16.7140873,5.47400794 16.5821429,5.98313492 16.6628968,6.54900794 C16.7434524,7.11507937 17.0105159,7.5702381 17.4630952,7.91507937 C18.5188492,8.7125 19.3357143,9.68789683 19.9119048,10.8410714 C20.4884921,11.9940476 20.7765873,13.2228175 20.7765873,14.5265873 C20.7765873,15.647619 20.5583333,16.7170635 20.1220238,17.7355159 C19.6855159,18.7539683 19.0954365,19.6349206 18.3517857,20.3785714 C17.6081349,21.1220238 16.727381,21.7121032 15.7089286,22.1486111 C14.6904762,22.585119 13.6208333,22.8035714 12.5,22.8035714 C11.3793651,22.8035714 10.3097222,22.585119 9.29126984,22.1486111 C8.27281746,21.7121032 7.39186508,21.1220238 6.64821429,20.3785714 C5.9047619,19.6349206 5.31468254,18.7539683 4.8781746,17.7355159 C4.44166667,16.7170635 4.2234127,15.647619 4.2234127,14.5265873 C4.2234127,13.2228175 4.51170635,11.994246 5.08829365,10.8410714 C5.66488095,9.68809524 6.48115079,8.71269841 7.53730159,7.91507937 C7.98988095,7.57003968 8.25654762,7.11488095 8.3375,6.54900794 C8.41825397,5.98333333 8.28630952,5.47400794 7.94146825,5.02142857 C7.60734127,4.55813492 7.15753968,4.28869048 6.59166667,4.21329365 C6.02579365,4.13789683 5.51111111,4.27261905 5.04781746,4.61746032 C3.47420635,5.79206349 2.25396825,7.24702381 1.38630952,8.98194444 C0.518650794,10.7170635 0.0849206349,12.5652778 0.0849206349,14.5265873 C0.0849206349,16.2079365 0.413690476,17.8134921 1.07103175,19.3438492 C1.72857143,20.8742063 2.61210317,22.194246 3.72222222,23.3043651 C4.83214286,24.4142857 6.15238095,25.2982143 7.6827381,25.9551587 C9.21309524,26.6126984 10.8188492,26.9416667 12.5,26.9416667 C14.1811508,26.9416667 15.7869048,26.6126984 17.3172619,25.9551587 C18.847619,25.2980159 20.1678571,24.4142857 21.2777778,23.3043651 C22.3876984,22.1944444 23.2712302,20.8742063 23.9287698,19.3438492 C24.5861111,17.8134921 24.9146825,16.2077381 24.9146825,14.5265873 C24.9146825,12.5652778 24.4815476,10.7170635 23.6138889,8.98194444 L23.6138889,8.98194444 Z" id="Shape" fill="#F8F8F8"></path>
    </g>
</svg>
